# xmcd
#
# Track frame offsets:
#	150
#	13063
#	24863
#	38996
#	56380
#	70861
#	84387
#	97602
#	113674
#	128175
#
# Disc length: 1880 seconds
#
# Revision: 1
# Processed by: cddbd v1.4PL0 Copyright (c) Steve Scherf et al.
# Submitted via: audiograbber 1.82.01
#
DISCID=6d07560a
DTITLE=McKameys, The - I've Won
DYEAR=2001
DGENRE=Southern Gospel
TTITLE0=They're Getting Ready In Glory To Crown the King
TTITLE1=I've Won
TTITLE2=I Love To Tell Of His Love
TTITLE3=I Want To Be That Man
TTITLE4=I Am
TTITLE5=At The Breaking Of Day
TTITLE6=He's So Very Good To Me
TTITLE7=Other Side, The
TTITLE8=He Calms Me
TTITLE9=Some Wonderful Day
EXTD=
EXTT0=
EXTT1=
EXTT2=
EXTT3=
EXTT4=
EXTT5=
EXTT6=
EXTT7=
EXTT8=
EXTT9=
PLAYORDER=
